<mxfile host="app.diagrams.net" agent="Mozilla/5.0 (Windows NT 10.0; Win64; x64) AppleWebKit/537.36 (KHTML, like Gecko) Chrome/129.0.0.0 Safari/537.36" version="24.8.0">
  <diagram name="Page-1" id="1k6NwFKqmDq_QukoTFWd">
    <mxGraphModel dx="1615" dy="1629" grid="1" gridSize="10" guides="1" tooltips="1" connect="1" arrows="1" fold="1" page="1" pageScale="1" pageWidth="1169" pageHeight="826" math="0" shadow="0">
      <root>
        <mxCell id="0" />
        <mxCell id="1" parent="0" />
        <mxCell id="10odNjJhLR96Ez2bC5Ds-97" value="" style="rounded=0;whiteSpace=wrap;html=1;fillColor=#d5e8d4;strokeColor=#330000;strokeWidth=4;" vertex="1" parent="1">
          <mxGeometry x="870" y="100" width="350" height="560" as="geometry" />
        </mxCell>
        <mxCell id="10odNjJhLR96Ez2bC5Ds-54" value="" style="rounded=0;whiteSpace=wrap;html=1;fillColor=#eeeeee;strokeColor=#36393d;" vertex="1" parent="1">
          <mxGeometry x="900" y="445" width="290" height="120" as="geometry" />
        </mxCell>
        <mxCell id="10odNjJhLR96Ez2bC5Ds-53" value="" style="rounded=0;whiteSpace=wrap;html=1;fillColor=#eeeeee;strokeColor=#36393d;" vertex="1" parent="1">
          <mxGeometry x="900" y="140" width="280" height="130" as="geometry" />
        </mxCell>
        <mxCell id="10odNjJhLR96Ez2bC5Ds-52" value="" style="rounded=0;whiteSpace=wrap;html=1;fillColor=#fff2cc;strokeColor=#330000;strokeWidth=4;" vertex="1" parent="1">
          <mxGeometry x="540" y="480" width="280" height="180" as="geometry" />
        </mxCell>
        <mxCell id="10odNjJhLR96Ez2bC5Ds-17" value="" style="rounded=0;whiteSpace=wrap;html=1;fillColor=#f8cecc;strokeColor=#330000;strokeWidth=4;" vertex="1" parent="1">
          <mxGeometry x="260" y="480" width="240" height="180" as="geometry" />
        </mxCell>
        <mxCell id="10odNjJhLR96Ez2bC5Ds-16" value="" style="rounded=0;whiteSpace=wrap;html=1;fillColor=#dae8fc;strokeColor=#330000;strokeWidth=4;" vertex="1" parent="1">
          <mxGeometry x="10" y="480" width="200" height="180" as="geometry" />
        </mxCell>
        <mxCell id="10odNjJhLR96Ez2bC5Ds-2" value="" style="verticalLabelPosition=bottom;sketch=0;aspect=fixed;html=1;verticalAlign=top;strokeColor=none;align=center;outlineConnect=0;shape=mxgraph.citrix.thin_client;" vertex="1" parent="1">
          <mxGeometry x="110" y="490" width="30" height="30" as="geometry" />
        </mxCell>
        <mxCell id="10odNjJhLR96Ez2bC5Ds-3" value="" style="verticalLabelPosition=bottom;sketch=0;aspect=fixed;html=1;verticalAlign=top;strokeColor=none;align=center;outlineConnect=0;shape=mxgraph.citrix.thin_client;" vertex="1" parent="1">
          <mxGeometry x="60" y="550" width="30" height="30" as="geometry" />
        </mxCell>
        <mxCell id="10odNjJhLR96Ez2bC5Ds-4" value="" style="verticalLabelPosition=bottom;sketch=0;aspect=fixed;html=1;verticalAlign=top;strokeColor=none;align=center;outlineConnect=0;shape=mxgraph.citrix.thin_client;" vertex="1" parent="1">
          <mxGeometry x="60" y="490" width="30" height="30" as="geometry" />
        </mxCell>
        <mxCell id="10odNjJhLR96Ez2bC5Ds-5" value="" style="verticalLabelPosition=bottom;sketch=0;aspect=fixed;html=1;verticalAlign=top;strokeColor=none;align=center;outlineConnect=0;shape=mxgraph.citrix.thin_client;" vertex="1" parent="1">
          <mxGeometry x="110" y="550" width="30" height="30" as="geometry" />
        </mxCell>
        <mxCell id="10odNjJhLR96Ez2bC5Ds-6" value="" style="verticalLabelPosition=bottom;sketch=0;aspect=fixed;html=1;verticalAlign=top;strokeColor=none;align=center;outlineConnect=0;shape=mxgraph.citrix.thin_client;" vertex="1" parent="1">
          <mxGeometry x="160" y="490" width="30" height="30" as="geometry" />
        </mxCell>
        <mxCell id="10odNjJhLR96Ez2bC5Ds-7" value="" style="verticalLabelPosition=bottom;sketch=0;aspect=fixed;html=1;verticalAlign=top;strokeColor=none;align=center;outlineConnect=0;shape=mxgraph.citrix.thin_client;" vertex="1" parent="1">
          <mxGeometry x="340" y="490" width="30" height="30" as="geometry" />
        </mxCell>
        <mxCell id="10odNjJhLR96Ez2bC5Ds-8" value="" style="verticalLabelPosition=bottom;sketch=0;aspect=fixed;html=1;verticalAlign=top;strokeColor=none;align=center;outlineConnect=0;shape=mxgraph.citrix.thin_client;" vertex="1" parent="1">
          <mxGeometry x="340" y="550" width="30" height="30" as="geometry" />
        </mxCell>
        <mxCell id="10odNjJhLR96Ez2bC5Ds-9" value="" style="verticalLabelPosition=bottom;sketch=0;aspect=fixed;html=1;verticalAlign=top;strokeColor=none;align=center;outlineConnect=0;shape=mxgraph.citrix.thin_client;" vertex="1" parent="1">
          <mxGeometry x="290" y="490" width="30" height="30" as="geometry" />
        </mxCell>
        <mxCell id="10odNjJhLR96Ez2bC5Ds-10" value="" style="verticalLabelPosition=bottom;sketch=0;aspect=fixed;html=1;verticalAlign=top;strokeColor=none;align=center;outlineConnect=0;shape=mxgraph.citrix.thin_client;" vertex="1" parent="1">
          <mxGeometry x="390" y="550" width="30" height="30" as="geometry" />
        </mxCell>
        <mxCell id="10odNjJhLR96Ez2bC5Ds-11" value="" style="verticalLabelPosition=bottom;sketch=0;aspect=fixed;html=1;verticalAlign=top;strokeColor=none;align=center;outlineConnect=0;shape=mxgraph.citrix.thin_client;" vertex="1" parent="1">
          <mxGeometry x="290" y="550" width="30" height="30" as="geometry" />
        </mxCell>
        <mxCell id="10odNjJhLR96Ez2bC5Ds-12" value="" style="verticalLabelPosition=bottom;sketch=0;aspect=fixed;html=1;verticalAlign=top;strokeColor=none;align=center;outlineConnect=0;shape=mxgraph.citrix.thin_client;" vertex="1" parent="1">
          <mxGeometry x="390" y="490" width="30" height="30" as="geometry" />
        </mxCell>
        <mxCell id="10odNjJhLR96Ez2bC5Ds-13" value="" style="verticalLabelPosition=bottom;sketch=0;aspect=fixed;html=1;verticalAlign=top;strokeColor=none;align=center;outlineConnect=0;shape=mxgraph.citrix.thin_client;" vertex="1" parent="1">
          <mxGeometry x="440" y="490" width="30" height="30" as="geometry" />
        </mxCell>
        <mxCell id="10odNjJhLR96Ez2bC5Ds-14" value="" style="verticalLabelPosition=bottom;sketch=0;aspect=fixed;html=1;verticalAlign=top;strokeColor=none;align=center;outlineConnect=0;shape=mxgraph.citrix.thin_client;" vertex="1" parent="1">
          <mxGeometry x="440" y="550" width="30" height="30" as="geometry" />
        </mxCell>
        <mxCell id="10odNjJhLR96Ez2bC5Ds-18" value="" style="verticalLabelPosition=bottom;sketch=0;aspect=fixed;html=1;verticalAlign=top;strokeColor=none;align=center;outlineConnect=0;shape=mxgraph.citrix.thin_client;" vertex="1" parent="1">
          <mxGeometry x="970" y="155" width="30" height="30" as="geometry" />
        </mxCell>
        <mxCell id="10odNjJhLR96Ez2bC5Ds-19" value="" style="verticalLabelPosition=bottom;sketch=0;aspect=fixed;html=1;verticalAlign=top;strokeColor=none;align=center;outlineConnect=0;shape=mxgraph.citrix.thin_client;" vertex="1" parent="1">
          <mxGeometry x="970" y="225" width="30" height="30" as="geometry" />
        </mxCell>
        <mxCell id="10odNjJhLR96Ez2bC5Ds-20" value="" style="verticalLabelPosition=bottom;sketch=0;aspect=fixed;html=1;verticalAlign=top;strokeColor=none;align=center;outlineConnect=0;shape=mxgraph.citrix.thin_client;" vertex="1" parent="1">
          <mxGeometry x="920" y="155" width="30" height="30" as="geometry" />
        </mxCell>
        <mxCell id="10odNjJhLR96Ez2bC5Ds-21" value="" style="verticalLabelPosition=bottom;sketch=0;aspect=fixed;html=1;verticalAlign=top;strokeColor=none;align=center;outlineConnect=0;shape=mxgraph.citrix.thin_client;" vertex="1" parent="1">
          <mxGeometry x="1020" y="225" width="30" height="30" as="geometry" />
        </mxCell>
        <mxCell id="10odNjJhLR96Ez2bC5Ds-22" value="" style="verticalLabelPosition=bottom;sketch=0;aspect=fixed;html=1;verticalAlign=top;strokeColor=none;align=center;outlineConnect=0;shape=mxgraph.citrix.thin_client;" vertex="1" parent="1">
          <mxGeometry x="920" y="225" width="30" height="30" as="geometry" />
        </mxCell>
        <mxCell id="10odNjJhLR96Ez2bC5Ds-23" value="" style="verticalLabelPosition=bottom;sketch=0;aspect=fixed;html=1;verticalAlign=top;strokeColor=none;align=center;outlineConnect=0;shape=mxgraph.citrix.thin_client;" vertex="1" parent="1">
          <mxGeometry x="1020" y="155" width="30" height="30" as="geometry" />
        </mxCell>
        <mxCell id="10odNjJhLR96Ez2bC5Ds-24" value="" style="verticalLabelPosition=bottom;sketch=0;aspect=fixed;html=1;verticalAlign=top;strokeColor=none;align=center;outlineConnect=0;shape=mxgraph.citrix.thin_client;" vertex="1" parent="1">
          <mxGeometry x="1070" y="155" width="30" height="30" as="geometry" />
        </mxCell>
        <mxCell id="10odNjJhLR96Ez2bC5Ds-25" value="" style="verticalLabelPosition=bottom;sketch=0;aspect=fixed;html=1;verticalAlign=top;strokeColor=none;align=center;outlineConnect=0;shape=mxgraph.citrix.thin_client;" vertex="1" parent="1">
          <mxGeometry x="1070" y="225" width="30" height="30" as="geometry" />
        </mxCell>
        <mxCell id="10odNjJhLR96Ez2bC5Ds-27" value="" style="verticalLabelPosition=bottom;sketch=0;aspect=fixed;html=1;verticalAlign=top;strokeColor=none;align=center;outlineConnect=0;shape=mxgraph.citrix.thin_client;" vertex="1" parent="1">
          <mxGeometry x="970" y="455" width="30" height="30" as="geometry" />
        </mxCell>
        <mxCell id="10odNjJhLR96Ez2bC5Ds-29" value="" style="verticalLabelPosition=bottom;sketch=0;aspect=fixed;html=1;verticalAlign=top;strokeColor=none;align=center;outlineConnect=0;shape=mxgraph.citrix.thin_client;" vertex="1" parent="1">
          <mxGeometry x="1020" y="455" width="30" height="30" as="geometry" />
        </mxCell>
        <mxCell id="10odNjJhLR96Ez2bC5Ds-30" value="" style="verticalLabelPosition=bottom;sketch=0;aspect=fixed;html=1;verticalAlign=top;strokeColor=none;align=center;outlineConnect=0;shape=mxgraph.citrix.thin_client;direction=south;" vertex="1" parent="1">
          <mxGeometry x="920" y="455" width="30" height="30" as="geometry" />
        </mxCell>
        <mxCell id="10odNjJhLR96Ez2bC5Ds-31" value="" style="verticalLabelPosition=bottom;sketch=0;aspect=fixed;html=1;verticalAlign=top;strokeColor=none;align=center;outlineConnect=0;shape=mxgraph.citrix.thin_client;" vertex="1" parent="1">
          <mxGeometry x="1120" y="225" width="30" height="30" as="geometry" />
        </mxCell>
        <mxCell id="10odNjJhLR96Ez2bC5Ds-32" value="" style="verticalLabelPosition=bottom;sketch=0;aspect=fixed;html=1;verticalAlign=top;strokeColor=none;align=center;outlineConnect=0;shape=mxgraph.citrix.thin_client;" vertex="1" parent="1">
          <mxGeometry x="1120" y="155" width="30" height="30" as="geometry" />
        </mxCell>
        <mxCell id="10odNjJhLR96Ez2bC5Ds-33" value="" style="verticalLabelPosition=bottom;sketch=0;aspect=fixed;html=1;verticalAlign=top;strokeColor=none;align=center;outlineConnect=0;shape=mxgraph.citrix.thin_client;" vertex="1" parent="1">
          <mxGeometry x="1070" y="455" width="30" height="30" as="geometry" />
        </mxCell>
        <mxCell id="10odNjJhLR96Ez2bC5Ds-34" value="" style="verticalLabelPosition=bottom;sketch=0;aspect=fixed;html=1;verticalAlign=top;strokeColor=none;align=center;outlineConnect=0;shape=mxgraph.citrix.thin_client;" vertex="1" parent="1">
          <mxGeometry x="970" y="515" width="30" height="30" as="geometry" />
        </mxCell>
        <mxCell id="10odNjJhLR96Ez2bC5Ds-36" value="" style="verticalLabelPosition=bottom;sketch=0;aspect=fixed;html=1;verticalAlign=top;strokeColor=none;align=center;outlineConnect=0;shape=mxgraph.citrix.thin_client;" vertex="1" parent="1">
          <mxGeometry x="920" y="515" width="30" height="30" as="geometry" />
        </mxCell>
        <mxCell id="10odNjJhLR96Ez2bC5Ds-37" value="" style="verticalLabelPosition=bottom;sketch=0;aspect=fixed;html=1;verticalAlign=top;strokeColor=none;align=center;outlineConnect=0;shape=mxgraph.citrix.thin_client;" vertex="1" parent="1">
          <mxGeometry x="1120" y="515" width="30" height="30" as="geometry" />
        </mxCell>
        <mxCell id="10odNjJhLR96Ez2bC5Ds-39" value="" style="verticalLabelPosition=bottom;sketch=0;aspect=fixed;html=1;verticalAlign=top;strokeColor=none;align=center;outlineConnect=0;shape=mxgraph.citrix.thin_client;" vertex="1" parent="1">
          <mxGeometry x="1020" y="515" width="30" height="30" as="geometry" />
        </mxCell>
        <mxCell id="10odNjJhLR96Ez2bC5Ds-40" value="" style="verticalLabelPosition=bottom;sketch=0;aspect=fixed;html=1;verticalAlign=top;strokeColor=none;align=center;outlineConnect=0;shape=mxgraph.citrix.thin_client;" vertex="1" parent="1">
          <mxGeometry x="1070" y="515" width="30" height="30" as="geometry" />
        </mxCell>
        <mxCell id="10odNjJhLR96Ez2bC5Ds-41" value="" style="verticalLabelPosition=bottom;sketch=0;aspect=fixed;html=1;verticalAlign=top;strokeColor=none;align=center;outlineConnect=0;shape=mxgraph.citrix.thin_client;" vertex="1" parent="1">
          <mxGeometry x="1120" y="455" width="30" height="30" as="geometry" />
        </mxCell>
        <mxCell id="10odNjJhLR96Ez2bC5Ds-42" value="" style="verticalLabelPosition=bottom;sketch=0;aspect=fixed;html=1;verticalAlign=top;strokeColor=none;align=center;outlineConnect=0;shape=mxgraph.citrix.thin_client;" vertex="1" parent="1">
          <mxGeometry x="610" y="490" width="30" height="30" as="geometry" />
        </mxCell>
        <mxCell id="10odNjJhLR96Ez2bC5Ds-43" value="" style="verticalLabelPosition=bottom;sketch=0;aspect=fixed;html=1;verticalAlign=top;strokeColor=none;align=center;outlineConnect=0;shape=mxgraph.citrix.thin_client;" vertex="1" parent="1">
          <mxGeometry x="660" y="490" width="30" height="30" as="geometry" />
        </mxCell>
        <mxCell id="10odNjJhLR96Ez2bC5Ds-44" value="" style="verticalLabelPosition=bottom;sketch=0;aspect=fixed;html=1;verticalAlign=top;strokeColor=none;align=center;outlineConnect=0;shape=mxgraph.citrix.thin_client;" vertex="1" parent="1">
          <mxGeometry x="560" y="490" width="30" height="30" as="geometry" />
        </mxCell>
        <mxCell id="10odNjJhLR96Ez2bC5Ds-45" value="" style="verticalLabelPosition=bottom;sketch=0;aspect=fixed;html=1;verticalAlign=top;strokeColor=none;align=center;outlineConnect=0;shape=mxgraph.citrix.thin_client;" vertex="1" parent="1">
          <mxGeometry x="710" y="490" width="30" height="30" as="geometry" />
        </mxCell>
        <mxCell id="10odNjJhLR96Ez2bC5Ds-46" value="" style="verticalLabelPosition=bottom;sketch=0;aspect=fixed;html=1;verticalAlign=top;strokeColor=none;align=center;outlineConnect=0;shape=mxgraph.citrix.thin_client;" vertex="1" parent="1">
          <mxGeometry x="610" y="550" width="30" height="30" as="geometry" />
        </mxCell>
        <mxCell id="10odNjJhLR96Ez2bC5Ds-47" value="" style="verticalLabelPosition=bottom;sketch=0;aspect=fixed;html=1;verticalAlign=top;strokeColor=none;align=center;outlineConnect=0;shape=mxgraph.citrix.thin_client;" vertex="1" parent="1">
          <mxGeometry x="560" y="550" width="30" height="30" as="geometry" />
        </mxCell>
        <mxCell id="10odNjJhLR96Ez2bC5Ds-48" value="" style="verticalLabelPosition=bottom;sketch=0;aspect=fixed;html=1;verticalAlign=top;strokeColor=none;align=center;outlineConnect=0;shape=mxgraph.citrix.thin_client;" vertex="1" parent="1">
          <mxGeometry x="760" y="550" width="30" height="30" as="geometry" />
        </mxCell>
        <mxCell id="10odNjJhLR96Ez2bC5Ds-49" value="" style="verticalLabelPosition=bottom;sketch=0;aspect=fixed;html=1;verticalAlign=top;strokeColor=none;align=center;outlineConnect=0;shape=mxgraph.citrix.thin_client;" vertex="1" parent="1">
          <mxGeometry x="660" y="550" width="30" height="30" as="geometry" />
        </mxCell>
        <mxCell id="10odNjJhLR96Ez2bC5Ds-50" value="" style="verticalLabelPosition=bottom;sketch=0;aspect=fixed;html=1;verticalAlign=top;strokeColor=none;align=center;outlineConnect=0;shape=mxgraph.citrix.thin_client;" vertex="1" parent="1">
          <mxGeometry x="710" y="550" width="30" height="30" as="geometry" />
        </mxCell>
        <mxCell id="10odNjJhLR96Ez2bC5Ds-51" value="" style="verticalLabelPosition=bottom;sketch=0;aspect=fixed;html=1;verticalAlign=top;strokeColor=none;align=center;outlineConnect=0;shape=mxgraph.citrix.thin_client;" vertex="1" parent="1">
          <mxGeometry x="760" y="490" width="30" height="30" as="geometry" />
        </mxCell>
        <mxCell id="10odNjJhLR96Ez2bC5Ds-55" value="" style="verticalLabelPosition=bottom;sketch=0;aspect=fixed;html=1;verticalAlign=top;strokeColor=none;align=center;outlineConnect=0;shape=mxgraph.citrix.switch;" vertex="1" parent="1">
          <mxGeometry x="1000" y="281.88" width="66.51" height="30" as="geometry" />
        </mxCell>
        <mxCell id="10odNjJhLR96Ez2bC5Ds-57" value="" style="verticalLabelPosition=bottom;sketch=0;aspect=fixed;html=1;verticalAlign=top;strokeColor=none;align=center;outlineConnect=0;shape=mxgraph.citrix.switch;" vertex="1" parent="1">
          <mxGeometry x="1000" y="398" width="66.51" height="30" as="geometry" />
        </mxCell>
        <mxCell id="10odNjJhLR96Ez2bC5Ds-58" value="" style="verticalLabelPosition=bottom;sketch=0;aspect=fixed;html=1;verticalAlign=top;strokeColor=none;align=center;outlineConnect=0;shape=mxgraph.citrix.switch;" vertex="1" parent="1">
          <mxGeometry x="790" y="340" width="66.51" height="30" as="geometry" />
        </mxCell>
        <mxCell id="10odNjJhLR96Ez2bC5Ds-60" value="" style="verticalLabelPosition=bottom;sketch=0;aspect=fixed;html=1;verticalAlign=top;strokeColor=none;align=center;outlineConnect=0;shape=mxgraph.citrix.switch;" vertex="1" parent="1">
          <mxGeometry x="640" y="340" width="66.51" height="30" as="geometry" />
        </mxCell>
        <mxCell id="10odNjJhLR96Ez2bC5Ds-61" value="" style="verticalLabelPosition=bottom;sketch=0;aspect=fixed;html=1;verticalAlign=top;strokeColor=none;align=center;outlineConnect=0;shape=mxgraph.citrix.switch;" vertex="1" parent="1">
          <mxGeometry x="353.49" y="340" width="66.51" height="30" as="geometry" />
        </mxCell>
        <mxCell id="10odNjJhLR96Ez2bC5Ds-62" value="" style="verticalLabelPosition=bottom;sketch=0;aspect=fixed;html=1;verticalAlign=top;strokeColor=#36393d;align=center;outlineConnect=0;shape=mxgraph.citrix.switch;fillColor=#cce5ff;" vertex="1" parent="1">
          <mxGeometry x="73.49000000000001" y="340" width="66.51" height="30" as="geometry" />
        </mxCell>
        <mxCell id="10odNjJhLR96Ez2bC5Ds-63" value="" style="verticalLabelPosition=bottom;sketch=0;aspect=fixed;html=1;verticalAlign=top;strokeColor=none;align=center;outlineConnect=0;shape=mxgraph.citrix.switch;" vertex="1" parent="1">
          <mxGeometry x="486" y="230" width="115" height="51.88" as="geometry" />
        </mxCell>
        <mxCell id="10odNjJhLR96Ez2bC5Ds-65" value="" style="verticalLabelPosition=bottom;sketch=0;aspect=fixed;html=1;verticalAlign=top;strokeColor=none;align=center;outlineConnect=0;shape=mxgraph.citrix.router;" vertex="1" parent="1">
          <mxGeometry x="500.5" y="70" width="86" height="57.07" as="geometry" />
        </mxCell>
        <mxCell id="10odNjJhLR96Ez2bC5Ds-66" value="" style="verticalLabelPosition=bottom;sketch=0;aspect=fixed;html=1;verticalAlign=top;strokeColor=none;align=center;outlineConnect=0;shape=mxgraph.citrix.pbx_server;" vertex="1" parent="1">
          <mxGeometry x="500.5" y="-160" width="80" height="104.62" as="geometry" />
        </mxCell>
        <mxCell id="10odNjJhLR96Ez2bC5Ds-67" value="" style="endArrow=classic;startArrow=classic;html=1;rounded=0;strokeWidth=4;" edge="1" parent="1" source="10odNjJhLR96Ez2bC5Ds-65" target="10odNjJhLR96Ez2bC5Ds-63">
          <mxGeometry width="50" height="50" relative="1" as="geometry">
            <mxPoint x="500" y="260" as="sourcePoint" />
            <mxPoint x="550" y="210" as="targetPoint" />
          </mxGeometry>
        </mxCell>
        <mxCell id="10odNjJhLR96Ez2bC5Ds-76" value="" style="endArrow=classic;startArrow=classic;html=1;rounded=0;strokeWidth=4;" edge="1" parent="1" source="10odNjJhLR96Ez2bC5Ds-65" target="10odNjJhLR96Ez2bC5Ds-66">
          <mxGeometry width="50" height="50" relative="1" as="geometry">
            <mxPoint x="520" y="30" as="sourcePoint" />
            <mxPoint x="570" y="-20" as="targetPoint" />
          </mxGeometry>
        </mxCell>
        <mxCell id="10odNjJhLR96Ez2bC5Ds-85" value="" style="endArrow=none;dashed=1;html=1;rounded=0;strokeWidth=3;" edge="1" parent="1" source="10odNjJhLR96Ez2bC5Ds-62" target="10odNjJhLR96Ez2bC5Ds-63">
          <mxGeometry width="50" height="50" relative="1" as="geometry">
            <mxPoint x="500" y="260" as="sourcePoint" />
            <mxPoint x="550" y="210" as="targetPoint" />
          </mxGeometry>
        </mxCell>
        <mxCell id="10odNjJhLR96Ez2bC5Ds-86" value="" style="endArrow=none;dashed=1;html=1;rounded=0;strokeWidth=3;" edge="1" parent="1" source="10odNjJhLR96Ez2bC5Ds-61" target="10odNjJhLR96Ez2bC5Ds-63">
          <mxGeometry width="50" height="50" relative="1" as="geometry">
            <mxPoint x="500" y="260" as="sourcePoint" />
            <mxPoint x="550" y="210" as="targetPoint" />
          </mxGeometry>
        </mxCell>
        <mxCell id="10odNjJhLR96Ez2bC5Ds-87" value="" style="endArrow=none;dashed=1;html=1;rounded=0;strokeWidth=3;" edge="1" parent="1" source="10odNjJhLR96Ez2bC5Ds-60" target="10odNjJhLR96Ez2bC5Ds-63">
          <mxGeometry width="50" height="50" relative="1" as="geometry">
            <mxPoint x="500" y="260" as="sourcePoint" />
            <mxPoint x="550" y="210" as="targetPoint" />
          </mxGeometry>
        </mxCell>
        <mxCell id="10odNjJhLR96Ez2bC5Ds-88" value="" style="endArrow=none;dashed=1;html=1;rounded=0;strokeWidth=3;" edge="1" parent="1" source="10odNjJhLR96Ez2bC5Ds-58" target="10odNjJhLR96Ez2bC5Ds-63">
          <mxGeometry width="50" height="50" relative="1" as="geometry">
            <mxPoint x="500" y="260" as="sourcePoint" />
            <mxPoint x="550" y="210" as="targetPoint" />
          </mxGeometry>
        </mxCell>
        <mxCell id="10odNjJhLR96Ez2bC5Ds-89" value="" style="endArrow=none;dashed=1;html=1;rounded=0;strokeWidth=2;" edge="1" parent="1" source="10odNjJhLR96Ez2bC5Ds-55" target="10odNjJhLR96Ez2bC5Ds-58">
          <mxGeometry width="50" height="50" relative="1" as="geometry">
            <mxPoint x="500" y="260" as="sourcePoint" />
            <mxPoint x="550" y="210" as="targetPoint" />
          </mxGeometry>
        </mxCell>
        <mxCell id="10odNjJhLR96Ez2bC5Ds-90" value="" style="endArrow=none;dashed=1;html=1;rounded=0;strokeWidth=2;" edge="1" parent="1" source="10odNjJhLR96Ez2bC5Ds-57" target="10odNjJhLR96Ez2bC5Ds-58">
          <mxGeometry width="50" height="50" relative="1" as="geometry">
            <mxPoint x="500" y="260" as="sourcePoint" />
            <mxPoint x="550" y="210" as="targetPoint" />
          </mxGeometry>
        </mxCell>
        <mxCell id="10odNjJhLR96Ez2bC5Ds-94" value="&#xa;&lt;p style=&quot;margin-top:0px; margin-bottom:0px; margin-left:0px; margin-right:0px; -qt-block-indent:0; text-indent:0px;&quot;&gt;&lt;span style=&quot;font-family:&#39;-apple-system&#39;,&#39;BlinkMacSystemFont&#39;,&#39;Segoe UI&#39;,&#39;Noto Sans&#39;,&#39;Helvetica&#39;,&#39;Arial&#39;,&#39;sans-serif&#39;,&#39;Apple Color Emoji&#39;,&#39;Segoe UI Emoji&#39;; font-size:16px; color:#1f2328; background-color:#ffffff;&quot;&gt;Production&lt;/span&gt;&lt;/p&gt;" style="text;html=1;align=center;verticalAlign=middle;whiteSpace=wrap;rounded=0;" vertex="1" parent="1">
          <mxGeometry x="625" y="590" width="110" height="60" as="geometry" />
        </mxCell>
        <mxCell id="10odNjJhLR96Ez2bC5Ds-95" value="&lt;p style=&quot;margin-top:0px; margin-bottom:0px; margin-left:0px; margin-right:0px; -qt-block-indent:0; text-indent:0px;&quot;&gt;&lt;span style=&quot;font-family:&#39;-apple-system&#39;,&#39;BlinkMacSystemFont&#39;,&#39;Segoe UI&#39;,&#39;Noto Sans&#39;,&#39;Helvetica&#39;,&#39;Arial&#39;,&#39;sans-serif&#39;,&#39;Apple Color Emoji&#39;,&#39;Segoe UI Emoji&#39;; font-size:16px; color:#1f2328; background-color:#ffffff;&quot;&gt;Support &lt;/span&gt;&lt;/p&gt;" style="text;whiteSpace=wrap;html=1;" vertex="1" parent="1">
          <mxGeometry x="995" y="610" width="90" height="40" as="geometry" />
        </mxCell>
        <mxCell id="10odNjJhLR96Ez2bC5Ds-98" value="" style="endArrow=none;html=1;rounded=0;" edge="1" parent="1" source="10odNjJhLR96Ez2bC5Ds-4" target="10odNjJhLR96Ez2bC5Ds-62">
          <mxGeometry width="50" height="50" relative="1" as="geometry">
            <mxPoint x="570" y="280" as="sourcePoint" />
            <mxPoint x="70" y="400" as="targetPoint" />
          </mxGeometry>
        </mxCell>
        <mxCell id="10odNjJhLR96Ez2bC5Ds-99" value="" style="endArrow=none;html=1;rounded=0;" edge="1" parent="1" source="10odNjJhLR96Ez2bC5Ds-2" target="10odNjJhLR96Ez2bC5Ds-62">
          <mxGeometry width="50" height="50" relative="1" as="geometry">
            <mxPoint x="570" y="280" as="sourcePoint" />
            <mxPoint x="620" y="230" as="targetPoint" />
          </mxGeometry>
        </mxCell>
        <mxCell id="10odNjJhLR96Ez2bC5Ds-100" value="" style="endArrow=none;html=1;rounded=0;" edge="1" parent="1" source="10odNjJhLR96Ez2bC5Ds-6" target="10odNjJhLR96Ez2bC5Ds-62">
          <mxGeometry width="50" height="50" relative="1" as="geometry">
            <mxPoint x="570" y="280" as="sourcePoint" />
            <mxPoint x="620" y="230" as="targetPoint" />
          </mxGeometry>
        </mxCell>
        <mxCell id="10odNjJhLR96Ez2bC5Ds-101" value="" style="endArrow=none;html=1;rounded=0;" edge="1" parent="1" source="10odNjJhLR96Ez2bC5Ds-62" target="10odNjJhLR96Ez2bC5Ds-3">
          <mxGeometry width="50" height="50" relative="1" as="geometry">
            <mxPoint x="570" y="280" as="sourcePoint" />
            <mxPoint x="620" y="230" as="targetPoint" />
          </mxGeometry>
        </mxCell>
        <mxCell id="10odNjJhLR96Ez2bC5Ds-102" value="" style="endArrow=none;html=1;rounded=0;" edge="1" parent="1" source="10odNjJhLR96Ez2bC5Ds-62" target="10odNjJhLR96Ez2bC5Ds-5">
          <mxGeometry width="50" height="50" relative="1" as="geometry">
            <mxPoint x="570" y="280" as="sourcePoint" />
            <mxPoint x="620" y="230" as="targetPoint" />
          </mxGeometry>
        </mxCell>
        <mxCell id="10odNjJhLR96Ez2bC5Ds-103" value="" style="endArrow=none;html=1;rounded=0;" edge="1" parent="1" source="10odNjJhLR96Ez2bC5Ds-9" target="10odNjJhLR96Ez2bC5Ds-61">
          <mxGeometry width="50" height="50" relative="1" as="geometry">
            <mxPoint x="570" y="280" as="sourcePoint" />
            <mxPoint x="620" y="230" as="targetPoint" />
          </mxGeometry>
        </mxCell>
        <mxCell id="10odNjJhLR96Ez2bC5Ds-104" value="" style="endArrow=none;html=1;rounded=0;" edge="1" parent="1" source="10odNjJhLR96Ez2bC5Ds-61" target="10odNjJhLR96Ez2bC5Ds-7">
          <mxGeometry width="50" height="50" relative="1" as="geometry">
            <mxPoint x="570" y="280" as="sourcePoint" />
            <mxPoint x="620" y="230" as="targetPoint" />
          </mxGeometry>
        </mxCell>
        <mxCell id="10odNjJhLR96Ez2bC5Ds-105" value="" style="endArrow=none;html=1;rounded=0;" edge="1" parent="1" source="10odNjJhLR96Ez2bC5Ds-61" target="10odNjJhLR96Ez2bC5Ds-12">
          <mxGeometry width="50" height="50" relative="1" as="geometry">
            <mxPoint x="570" y="280" as="sourcePoint" />
            <mxPoint x="620" y="230" as="targetPoint" />
          </mxGeometry>
        </mxCell>
        <mxCell id="10odNjJhLR96Ez2bC5Ds-106" value="" style="endArrow=none;html=1;rounded=0;" edge="1" parent="1" source="10odNjJhLR96Ez2bC5Ds-61" target="10odNjJhLR96Ez2bC5Ds-13">
          <mxGeometry width="50" height="50" relative="1" as="geometry">
            <mxPoint x="570" y="280" as="sourcePoint" />
            <mxPoint x="620" y="230" as="targetPoint" />
          </mxGeometry>
        </mxCell>
        <mxCell id="10odNjJhLR96Ez2bC5Ds-107" value="" style="endArrow=none;html=1;rounded=0;" edge="1" parent="1" source="10odNjJhLR96Ez2bC5Ds-61" target="10odNjJhLR96Ez2bC5Ds-11">
          <mxGeometry width="50" height="50" relative="1" as="geometry">
            <mxPoint x="570" y="280" as="sourcePoint" />
            <mxPoint x="620" y="230" as="targetPoint" />
          </mxGeometry>
        </mxCell>
        <mxCell id="10odNjJhLR96Ez2bC5Ds-108" value="" style="endArrow=none;html=1;rounded=0;" edge="1" parent="1" source="10odNjJhLR96Ez2bC5Ds-61" target="10odNjJhLR96Ez2bC5Ds-8">
          <mxGeometry width="50" height="50" relative="1" as="geometry">
            <mxPoint x="570" y="280" as="sourcePoint" />
            <mxPoint x="620" y="230" as="targetPoint" />
          </mxGeometry>
        </mxCell>
        <mxCell id="10odNjJhLR96Ez2bC5Ds-109" value="" style="endArrow=none;html=1;rounded=0;" edge="1" parent="1" source="10odNjJhLR96Ez2bC5Ds-61" target="10odNjJhLR96Ez2bC5Ds-10">
          <mxGeometry width="50" height="50" relative="1" as="geometry">
            <mxPoint x="570" y="280" as="sourcePoint" />
            <mxPoint x="620" y="230" as="targetPoint" />
          </mxGeometry>
        </mxCell>
        <mxCell id="10odNjJhLR96Ez2bC5Ds-92" value="&lt;p style=&quot;margin-top:0px; margin-bottom:0px; margin-left:0px; margin-right:0px; -qt-block-indent:0; text-indent:0px;&quot;&gt;&lt;span style=&quot;font-family:&#39;-apple-system&#39;,&#39;BlinkMacSystemFont&#39;,&#39;Segoe UI&#39;,&#39;Noto Sans&#39;,&#39;Helvetica&#39;,&#39;Arial&#39;,&#39;sans-serif&#39;,&#39;Apple Color Emoji&#39;,&#39;Segoe UI Emoji&#39;; font-size:16px; color:#1f2328; background-color:#ffffff;&quot;&gt;Management/Secretariat&lt;/span&gt;&lt;/p&gt;" style="text;whiteSpace=wrap;html=1;" vertex="1" parent="1">
          <mxGeometry x="20" y="610" width="210" height="40" as="geometry" />
        </mxCell>
        <mxCell id="10odNjJhLR96Ez2bC5Ds-93" value="&lt;p style=&quot;margin-top:0px; margin-bottom:0px; margin-left:0px; margin-right:0px; -qt-block-indent:0; text-indent:0px;&quot;&gt;&lt;span style=&quot;font-family:&#39;-apple-system&#39;,&#39;BlinkMacSystemFont&#39;,&#39;Segoe UI&#39;,&#39;Noto Sans&#39;,&#39;Helvetica&#39;,&#39;Arial&#39;,&#39;sans-serif&#39;,&#39;Apple Color Emoji&#39;,&#39;Segoe UI Emoji&#39;; font-size:16px; color:#1f2328; background-color:#ffffff;&quot;&gt;Study&lt;/span&gt;&lt;/p&gt;" style="text;whiteSpace=wrap;html=1;" vertex="1" parent="1">
          <mxGeometry x="340" y="610" width="70" height="40" as="geometry" />
        </mxCell>
        <mxCell id="10odNjJhLR96Ez2bC5Ds-111" value="" style="endArrow=none;html=1;rounded=0;" edge="1" parent="1" source="10odNjJhLR96Ez2bC5Ds-44" target="10odNjJhLR96Ez2bC5Ds-60">
          <mxGeometry width="50" height="50" relative="1" as="geometry">
            <mxPoint x="570" y="280" as="sourcePoint" />
            <mxPoint x="620" y="230" as="targetPoint" />
          </mxGeometry>
        </mxCell>
        <mxCell id="10odNjJhLR96Ez2bC5Ds-112" value="" style="endArrow=none;html=1;rounded=0;" edge="1" parent="1" source="10odNjJhLR96Ez2bC5Ds-42" target="10odNjJhLR96Ez2bC5Ds-60">
          <mxGeometry width="50" height="50" relative="1" as="geometry">
            <mxPoint x="570" y="280" as="sourcePoint" />
            <mxPoint x="620" y="230" as="targetPoint" />
          </mxGeometry>
        </mxCell>
        <mxCell id="10odNjJhLR96Ez2bC5Ds-113" value="" style="endArrow=none;html=1;rounded=0;" edge="1" parent="1" source="10odNjJhLR96Ez2bC5Ds-43" target="10odNjJhLR96Ez2bC5Ds-60">
          <mxGeometry width="50" height="50" relative="1" as="geometry">
            <mxPoint x="570" y="280" as="sourcePoint" />
            <mxPoint x="620" y="230" as="targetPoint" />
          </mxGeometry>
        </mxCell>
        <mxCell id="10odNjJhLR96Ez2bC5Ds-114" value="" style="endArrow=none;html=1;rounded=0;" edge="1" parent="1" source="10odNjJhLR96Ez2bC5Ds-60" target="10odNjJhLR96Ez2bC5Ds-45">
          <mxGeometry width="50" height="50" relative="1" as="geometry">
            <mxPoint x="570" y="280" as="sourcePoint" />
            <mxPoint x="620" y="230" as="targetPoint" />
          </mxGeometry>
        </mxCell>
        <mxCell id="10odNjJhLR96Ez2bC5Ds-115" value="" style="endArrow=none;html=1;rounded=0;" edge="1" parent="1" source="10odNjJhLR96Ez2bC5Ds-60" target="10odNjJhLR96Ez2bC5Ds-51">
          <mxGeometry width="50" height="50" relative="1" as="geometry">
            <mxPoint x="570" y="280" as="sourcePoint" />
            <mxPoint x="620" y="230" as="targetPoint" />
          </mxGeometry>
        </mxCell>
        <mxCell id="10odNjJhLR96Ez2bC5Ds-116" value="" style="endArrow=none;html=1;rounded=0;" edge="1" parent="1" source="10odNjJhLR96Ez2bC5Ds-60" target="10odNjJhLR96Ez2bC5Ds-47">
          <mxGeometry width="50" height="50" relative="1" as="geometry">
            <mxPoint x="570" y="280" as="sourcePoint" />
            <mxPoint x="620" y="230" as="targetPoint" />
          </mxGeometry>
        </mxCell>
        <mxCell id="10odNjJhLR96Ez2bC5Ds-117" value="" style="endArrow=none;html=1;rounded=0;" edge="1" parent="1" source="10odNjJhLR96Ez2bC5Ds-46" target="10odNjJhLR96Ez2bC5Ds-60">
          <mxGeometry width="50" height="50" relative="1" as="geometry">
            <mxPoint x="570" y="280" as="sourcePoint" />
            <mxPoint x="620" y="230" as="targetPoint" />
          </mxGeometry>
        </mxCell>
        <mxCell id="10odNjJhLR96Ez2bC5Ds-118" value="" style="endArrow=none;html=1;rounded=0;" edge="1" parent="1" source="10odNjJhLR96Ez2bC5Ds-60" target="10odNjJhLR96Ez2bC5Ds-49">
          <mxGeometry width="50" height="50" relative="1" as="geometry">
            <mxPoint x="570" y="280" as="sourcePoint" />
            <mxPoint x="620" y="230" as="targetPoint" />
          </mxGeometry>
        </mxCell>
        <mxCell id="10odNjJhLR96Ez2bC5Ds-119" value="" style="endArrow=none;html=1;rounded=0;" edge="1" parent="1" source="10odNjJhLR96Ez2bC5Ds-50" target="10odNjJhLR96Ez2bC5Ds-60">
          <mxGeometry width="50" height="50" relative="1" as="geometry">
            <mxPoint x="570" y="280" as="sourcePoint" />
            <mxPoint x="620" y="230" as="targetPoint" />
          </mxGeometry>
        </mxCell>
        <mxCell id="10odNjJhLR96Ez2bC5Ds-120" value="" style="endArrow=none;html=1;rounded=0;" edge="1" parent="1" source="10odNjJhLR96Ez2bC5Ds-48" target="10odNjJhLR96Ez2bC5Ds-60">
          <mxGeometry width="50" height="50" relative="1" as="geometry">
            <mxPoint x="570" y="280" as="sourcePoint" />
            <mxPoint x="620" y="230" as="targetPoint" />
          </mxGeometry>
        </mxCell>
        <mxCell id="10odNjJhLR96Ez2bC5Ds-121" value="" style="endArrow=none;html=1;rounded=0;" edge="1" parent="1" source="10odNjJhLR96Ez2bC5Ds-22" target="10odNjJhLR96Ez2bC5Ds-55">
          <mxGeometry width="50" height="50" relative="1" as="geometry">
            <mxPoint x="570" y="280" as="sourcePoint" />
            <mxPoint x="620" y="230" as="targetPoint" />
          </mxGeometry>
        </mxCell>
        <mxCell id="10odNjJhLR96Ez2bC5Ds-122" value="" style="endArrow=none;html=1;rounded=0;" edge="1" parent="1" source="10odNjJhLR96Ez2bC5Ds-19" target="10odNjJhLR96Ez2bC5Ds-55">
          <mxGeometry width="50" height="50" relative="1" as="geometry">
            <mxPoint x="570" y="280" as="sourcePoint" />
            <mxPoint x="620" y="230" as="targetPoint" />
          </mxGeometry>
        </mxCell>
        <mxCell id="10odNjJhLR96Ez2bC5Ds-123" value="" style="endArrow=none;html=1;rounded=0;" edge="1" parent="1" source="10odNjJhLR96Ez2bC5Ds-21" target="10odNjJhLR96Ez2bC5Ds-55">
          <mxGeometry width="50" height="50" relative="1" as="geometry">
            <mxPoint x="640" y="460" as="sourcePoint" />
            <mxPoint x="690" y="410" as="targetPoint" />
          </mxGeometry>
        </mxCell>
        <mxCell id="10odNjJhLR96Ez2bC5Ds-125" value="" style="endArrow=none;html=1;rounded=0;" edge="1" parent="1" source="10odNjJhLR96Ez2bC5Ds-55" target="10odNjJhLR96Ez2bC5Ds-25">
          <mxGeometry width="50" height="50" relative="1" as="geometry">
            <mxPoint x="650" y="320" as="sourcePoint" />
            <mxPoint x="700" y="270" as="targetPoint" />
          </mxGeometry>
        </mxCell>
        <mxCell id="10odNjJhLR96Ez2bC5Ds-126" value="" style="endArrow=none;html=1;rounded=0;" edge="1" parent="1" source="10odNjJhLR96Ez2bC5Ds-55" target="10odNjJhLR96Ez2bC5Ds-31">
          <mxGeometry width="50" height="50" relative="1" as="geometry">
            <mxPoint x="650" y="320" as="sourcePoint" />
            <mxPoint x="700" y="270" as="targetPoint" />
          </mxGeometry>
        </mxCell>
        <mxCell id="10odNjJhLR96Ez2bC5Ds-127" value="" style="endArrow=none;html=1;rounded=0;" edge="1" parent="1" source="10odNjJhLR96Ez2bC5Ds-55" target="10odNjJhLR96Ez2bC5Ds-20">
          <mxGeometry width="50" height="50" relative="1" as="geometry">
            <mxPoint x="650" y="320" as="sourcePoint" />
            <mxPoint x="700" y="270" as="targetPoint" />
          </mxGeometry>
        </mxCell>
        <mxCell id="10odNjJhLR96Ez2bC5Ds-128" value="" style="endArrow=none;html=1;rounded=0;" edge="1" parent="1" source="10odNjJhLR96Ez2bC5Ds-55" target="10odNjJhLR96Ez2bC5Ds-18">
          <mxGeometry width="50" height="50" relative="1" as="geometry">
            <mxPoint x="650" y="320" as="sourcePoint" />
            <mxPoint x="700" y="270" as="targetPoint" />
          </mxGeometry>
        </mxCell>
        <mxCell id="10odNjJhLR96Ez2bC5Ds-129" value="" style="endArrow=none;html=1;rounded=0;" edge="1" parent="1" source="10odNjJhLR96Ez2bC5Ds-55" target="10odNjJhLR96Ez2bC5Ds-23">
          <mxGeometry width="50" height="50" relative="1" as="geometry">
            <mxPoint x="650" y="320" as="sourcePoint" />
            <mxPoint x="700" y="270" as="targetPoint" />
          </mxGeometry>
        </mxCell>
        <mxCell id="10odNjJhLR96Ez2bC5Ds-130" value="" style="endArrow=none;html=1;rounded=0;" edge="1" parent="1" source="10odNjJhLR96Ez2bC5Ds-55" target="10odNjJhLR96Ez2bC5Ds-24">
          <mxGeometry width="50" height="50" relative="1" as="geometry">
            <mxPoint x="650" y="320" as="sourcePoint" />
            <mxPoint x="700" y="270" as="targetPoint" />
          </mxGeometry>
        </mxCell>
        <mxCell id="10odNjJhLR96Ez2bC5Ds-131" value="" style="endArrow=none;html=1;rounded=0;" edge="1" parent="1" source="10odNjJhLR96Ez2bC5Ds-55" target="10odNjJhLR96Ez2bC5Ds-32">
          <mxGeometry width="50" height="50" relative="1" as="geometry">
            <mxPoint x="650" y="320" as="sourcePoint" />
            <mxPoint x="700" y="270" as="targetPoint" />
          </mxGeometry>
        </mxCell>
        <mxCell id="10odNjJhLR96Ez2bC5Ds-132" value="" style="endArrow=none;html=1;rounded=0;" edge="1" parent="1" source="10odNjJhLR96Ez2bC5Ds-57" target="10odNjJhLR96Ez2bC5Ds-30">
          <mxGeometry width="50" height="50" relative="1" as="geometry">
            <mxPoint x="650" y="320" as="sourcePoint" />
            <mxPoint x="700" y="270" as="targetPoint" />
          </mxGeometry>
        </mxCell>
        <mxCell id="10odNjJhLR96Ez2bC5Ds-134" value="" style="endArrow=none;html=1;rounded=0;" edge="1" parent="1" source="10odNjJhLR96Ez2bC5Ds-57" target="10odNjJhLR96Ez2bC5Ds-27">
          <mxGeometry width="50" height="50" relative="1" as="geometry">
            <mxPoint x="650" y="320" as="sourcePoint" />
            <mxPoint x="700" y="270" as="targetPoint" />
          </mxGeometry>
        </mxCell>
        <mxCell id="10odNjJhLR96Ez2bC5Ds-135" value="" style="endArrow=none;html=1;rounded=0;" edge="1" parent="1" source="10odNjJhLR96Ez2bC5Ds-57" target="10odNjJhLR96Ez2bC5Ds-29">
          <mxGeometry width="50" height="50" relative="1" as="geometry">
            <mxPoint x="650" y="320" as="sourcePoint" />
            <mxPoint x="700" y="270" as="targetPoint" />
          </mxGeometry>
        </mxCell>
        <mxCell id="10odNjJhLR96Ez2bC5Ds-136" value="" style="endArrow=none;html=1;rounded=0;" edge="1" parent="1" source="10odNjJhLR96Ez2bC5Ds-57" target="10odNjJhLR96Ez2bC5Ds-33">
          <mxGeometry width="50" height="50" relative="1" as="geometry">
            <mxPoint x="650" y="320" as="sourcePoint" />
            <mxPoint x="700" y="270" as="targetPoint" />
          </mxGeometry>
        </mxCell>
        <mxCell id="10odNjJhLR96Ez2bC5Ds-137" value="" style="endArrow=none;html=1;rounded=0;" edge="1" parent="1" source="10odNjJhLR96Ez2bC5Ds-57" target="10odNjJhLR96Ez2bC5Ds-41">
          <mxGeometry width="50" height="50" relative="1" as="geometry">
            <mxPoint x="650" y="320" as="sourcePoint" />
            <mxPoint x="700" y="270" as="targetPoint" />
          </mxGeometry>
        </mxCell>
        <mxCell id="10odNjJhLR96Ez2bC5Ds-138" value="" style="endArrow=none;html=1;rounded=0;" edge="1" parent="1" source="10odNjJhLR96Ez2bC5Ds-57" target="10odNjJhLR96Ez2bC5Ds-36">
          <mxGeometry width="50" height="50" relative="1" as="geometry">
            <mxPoint x="650" y="320" as="sourcePoint" />
            <mxPoint x="700" y="270" as="targetPoint" />
          </mxGeometry>
        </mxCell>
        <mxCell id="10odNjJhLR96Ez2bC5Ds-139" value="" style="endArrow=none;html=1;rounded=0;" edge="1" parent="1" source="10odNjJhLR96Ez2bC5Ds-34" target="10odNjJhLR96Ez2bC5Ds-57">
          <mxGeometry width="50" height="50" relative="1" as="geometry">
            <mxPoint x="650" y="320" as="sourcePoint" />
            <mxPoint x="700" y="270" as="targetPoint" />
          </mxGeometry>
        </mxCell>
        <mxCell id="10odNjJhLR96Ez2bC5Ds-140" value="" style="endArrow=none;html=1;rounded=0;" edge="1" parent="1" source="10odNjJhLR96Ez2bC5Ds-39" target="10odNjJhLR96Ez2bC5Ds-57">
          <mxGeometry width="50" height="50" relative="1" as="geometry">
            <mxPoint x="650" y="320" as="sourcePoint" />
            <mxPoint x="700" y="270" as="targetPoint" />
          </mxGeometry>
        </mxCell>
        <mxCell id="10odNjJhLR96Ez2bC5Ds-141" value="" style="endArrow=none;html=1;rounded=0;" edge="1" parent="1" source="10odNjJhLR96Ez2bC5Ds-40" target="10odNjJhLR96Ez2bC5Ds-57">
          <mxGeometry width="50" height="50" relative="1" as="geometry">
            <mxPoint x="650" y="320" as="sourcePoint" />
            <mxPoint x="700" y="270" as="targetPoint" />
          </mxGeometry>
        </mxCell>
        <mxCell id="10odNjJhLR96Ez2bC5Ds-142" value="" style="endArrow=none;html=1;rounded=0;" edge="1" parent="1" source="10odNjJhLR96Ez2bC5Ds-37" target="10odNjJhLR96Ez2bC5Ds-57">
          <mxGeometry width="50" height="50" relative="1" as="geometry">
            <mxPoint x="650" y="320" as="sourcePoint" />
            <mxPoint x="700" y="270" as="targetPoint" />
          </mxGeometry>
        </mxCell>
      </root>
    </mxGraphModel>
  </diagram>
</mxfile>
